<svg width="464" height="946" viewBox="0 0 464 946" fill="none" xmlns="http://www.w3.org/2000/svg">
    <path
        d="M71.1574 0.049169C72.027 -0.0537608 72.8576 0.419584 73.2212 1.22012L166.898 211.093C167.254 211.879 167.061 212.8 166.429 213.382L-3.95541 370C-4.58829 370.583 -5.54045 370.69 -6.29952 370.265L-205.243 257.181C-206.001 256.751 -206.391 255.882 -206.213 255.032L-158.821 28.5105C-158.645 27.6697 -157.95 27.0347 -157.101 26.9335L71.1574 0.049169Z"
        fill="#FFBAC4" />
    <path
        d="M35.7315 592.817C36.5315 591.727 38.1574 591.727 38.9574 592.817L81.3565 650.608C81.8355 651.268 82.6605 651.568 83.4465 651.368L153.279 634.198C154.594 633.878 155.845 634.928 155.753 636.278L150.881 707.628C150.825 708.448 151.268 709.207 152 709.567L216.565 741.048C217.786 741.638 218.071 743.258 217.126 744.238L167.287 795.768C166.72 796.358 166.566 797.228 166.898 797.978L196.008 863.358C196.56 864.598 195.742 866.018 194.393 866.158L122.88 873.778C122.073 873.868 121.398 874.428 121.172 875.208L101.208 943.928C100.831 945.228 99.3015 945.788 98.1775 945.038L38.4555 905.148C37.7825 904.698 36.9064 904.698 36.2334 905.148L-23.4885 945.038C-24.6125 945.788 -26.1425 945.228 -26.5195 943.928L-46.4835 875.208C-46.7095 874.428 -47.3845 873.868 -48.1915 873.778L-119.705 866.158C-121.054 866.018 -121.872 864.598 -121.32 863.358L-92.2095 797.978C-91.8775 797.228 -92.0315 796.358 -92.5985 795.768L-142.438 744.238C-143.383 743.258 -143.098 741.638 -141.877 741.048L-77.3115 709.567C-76.5795 709.207 -76.1365 708.448 -76.1925 707.628L-81.0635 636.278C-81.1555 634.928 -79.9055 633.878 -78.5905 634.198L-8.75752 651.368C-7.97153 651.568 -7.14653 651.268 -6.66753 650.608L35.7315 592.817Z"
        fill="#FFE54D" />
    <path fill-rule="evenodd" clip-rule="evenodd"
        d="M242.345 255.617C243.128 254.833 244.391 254.836 245.172 255.617L442.125 452.271C442.906 453.052 442.909 454.315 442.126 455.099L245.327 652.051C244.551 652.827 243.281 652.831 242.499 652.05L45.5478 455.397C44.7666 454.616 44.7697 453.345 45.5465 452.569L242.345 255.617Z"
        fill="#91D8EC" />
</svg>
    