<svg width="401" height="1053" viewBox="0 0 401 1053" fill="none" xmlns="http://www.w3.org/2000/svg">
    <path
        d="M316 312C402.156 312 472 242.156 472 156C472 69.8436 402.156 0 316 0C229.844 0 160 69.8436 160 156C160 242.156 229.844 312 316 312Z"
        fill="#FF4141" />
    <path
        d="M569.561 694.946C570.33 695.366 570.733 696.233 570.566 697.096L525.467 922.458C525.303 923.305 524.612 923.945 523.76 924.053L294.166 953.134C293.309 953.247 292.47 952.783 292.101 951.994L195.334 744.624C194.965 743.835 195.149 742.901 195.787 742.31L365.555 585.031C366.185 584.447 367.119 584.331 367.87 584.74L569.561 694.946Z"
        fill="#2727E6" />
    <path
        d="M28.216 329.845C27.9433 328.344 29.3918 327.097 30.8382 327.599L361.665 442.076C363.115 442.578 363.479 444.478 362.31 445.485L94.0512 675.441C92.8791 676.449 91.0576 675.798 90.7817 674.278L28.216 329.845Z"
        fill="#16AB59" />
</svg>
    